<?xml version="1.0" encoding="UTF-8" standalone="no"?>
<!-- Created with Inkscape (http://www.inkscape.org/) -->

<svg
   width="48"
   height="48"
   viewBox="0 0 12.7 12.7"
   version="1.1"
   id="svg1"
   inkscape:version="1.3.2 (091e20e, 2023-11-25, custom)"
   sodipodi:docname="ungram.svg"
   inkscape:export-filename="ungram.png"
   inkscape:export-xdpi="96"
   inkscape:export-ydpi="96"
   xmlns:inkscape="http://www.inkscape.org/namespaces/inkscape"
   xmlns:sodipodi="http://sodipodi.sourceforge.net/DTD/sodipodi-0.dtd"
   xmlns="http://www.w3.org/2000/svg"
   xmlns:svg="http://www.w3.org/2000/svg">
  <sodipodi:namedview
     id="namedview1"
     pagecolor="#ffffff"
     bordercolor="#000000"
     borderopacity="0.25"
     inkscape:showpageshadow="2"
     inkscape:pageopacity="0.0"
     inkscape:pagecheckerboard="0"
     inkscape:deskcolor="#d1d1d1"
     inkscape:document-units="mm"
     inkscape:zoom="8.5094276"
     inkscape:cx="19.625292"
     inkscape:cy="17.216199"
     inkscape:window-width="1600"
     inkscape:window-height="811"
     inkscape:window-x="-9"
     inkscape:window-y="-9"
     inkscape:window-maximized="1"
     inkscape:current-layer="layer1" />
  <defs
     id="defs1" />
  <g
     inkscape:label="ungram-icon"
     inkscape:groupmode="layer"
     id="layer1">
    <circle
       style="fill:#282a36;stroke-width:0.316712"
       id="path2"
       cx="6.3499999"
       cy="6.3499999"
       r="6.0854168"
       inkscape:label="border" />
    <path
       style="stroke-width:0.258046;fill:#f8f8f2;fill-opacity:1"
       d="M 1.578715,4.0741699 A 5.2916665,5.2916665 0 0 0 1.0583333,6.35 5.2916665,5.2916665 0 0 0 1.3415202,8.0253499 H 11.35848 A 5.2916665,5.2916665 0 0 0 11.641667,6.35 5.2916665,5.2916665 0 0 0 11.126969,4.0741699 Z"
       id="path14"
       inkscape:label="bg-center" />
    <path
       id="path1"
       style="stroke-width:0.258046;fill:#bd93f9;fill-opacity:1"
       d="M 6.35,1.0583333 A 5.2916665,5.2916665 0 0 0 2.2525757,3.0158366 H 10.458276 A 5.2916665,5.2916665 0 0 0 6.35,1.0583333 Z m -4.5211711,8.02535 A 5.2916665,5.2916665 0 0 0 6.35,11.641667 5.2916665,5.2916665 0 0 0 10.871171,9.0836833 Z"
       inkscape:label="bg-side" />
    <path
       d="M 2.221844,5.2999714 H 2.5495281 V 6.178962 q 0,0.2092307 0.012177,0.271225 0.021034,0.099634 0.099634,0.160521 0.079707,0.05978 0.21698,0.05978 0.1394872,0 0.2103378,-0.056459 0.070851,-0.057566 0.085242,-0.1405942 0.014391,-0.083028 0.014391,-0.2756532 V 5.2999714 H 3.515975 V 6.152393 q 0,0.2922588 -0.026569,0.4129263 -0.026569,0.1206674 -0.098527,0.2036955 -0.070851,0.083028 -0.190411,0.1328449 -0.1195605,0.04871 -0.3121856,0.04871 -0.2324786,0 -0.3531461,-0.053138 Q 2.4155762,6.8431866 2.3458326,6.7579444 2.276089,6.6715952 2.2539482,6.5774967 2.221844,6.4380096 2.221844,6.1656775 Z M 4.9285594,6.9228935 H 4.6174808 V 6.3228773 q 0,-0.1904111 -0.019927,-0.2457631 -0.019927,-0.056459 -0.065315,-0.087456 -0.044282,-0.030997 -0.107383,-0.030997 -0.080814,0 -0.1450224,0.044282 -0.064208,0.044282 -0.088563,0.1173464 -0.023248,0.073065 -0.023248,0.270118 V 6.9228935 H 3.8569436 V 5.747216 H 4.1458814 V 5.9199144 Q 4.2997601,5.720647 4.5333457,5.720647 q 0.1029548,0 0.188197,0.037639 0.085242,0.036532 0.1284167,0.094098 0.044282,0.057566 0.060887,0.1306308 0.017713,0.073065 0.017713,0.2092307 z m 0.2867236,0.077493 0.3553601,0.043175 q 0.00886,0.061994 0.040961,0.085242 0.044282,0.033211 0.1394871,0.033211 0.1217745,0 0.1826618,-0.036532 0.04096,-0.024355 0.061994,-0.0786 0.014391,-0.038746 0.014391,-0.1428083 V 6.7324825 q -0.1394871,0.190411 -0.352039,0.190411 -0.2369068,0 -0.3752869,-0.2003744 -0.10849,-0.1583069 -0.10849,-0.3941066 0,-0.29558 0.1417012,-0.4516727 Q 5.458832,5.720647 5.6702768,5.720647 q 0.2180871,0 0.3597884,0.1915181 V 5.747216 H 6.321217 v 1.0550101 q 0,0.2081237 -0.034318,0.3110785 -0.034318,0.1029548 -0.096313,0.161628 -0.061994,0.058673 -0.1660561,0.091884 -0.1029548,0.033211 -0.2612617,0.033211 -0.2989011,0 -0.4239967,-0.1029548 -0.1250957,-0.1018478 -0.1250957,-0.2590476 0,-0.015499 0.00111,-0.037639 z M 5.4931503,6.3106998 q 0,0.18709 0.071958,0.2745462 0.073065,0.086349 0.1793407,0.086349 0.1140252,0 0.1926251,-0.088563 0.0786,-0.08967 0.0786,-0.2645828 0,-0.1826617 -0.075279,-0.271225 -0.075279,-0.088563 -0.1904111,-0.088563 -0.1118111,0 -0.1848759,0.087456 -0.071958,0.086349 -0.071958,0.2645828 z m 1.433618,0.6121937 H 6.6156898 V 5.747216 h 0.2889377 v 0.1671631 q 0.074172,-0.1184533 0.1328449,-0.1560927 0.05978,-0.037639 0.135059,-0.037639 0.1062759,0 0.2048026,0.058673 l -0.096313,0.2712251 q -0.0786,-0.050924 -0.1461294,-0.050924 -0.065315,0 -0.1107041,0.036532 -0.045389,0.035425 -0.071958,0.1295238 -0.025462,0.094098 -0.025462,0.3941066 z M 7.7437647,6.1058972 7.4614692,6.0549734 Q 7.509072,5.884489 7.6253113,5.802568 7.7415506,5.720647 7.9707081,5.720647 q 0.2081237,0 0.3099715,0.049817 0.1018478,0.04871 0.1428083,0.1250957 0.042067,0.075279 0.042067,0.2778672 l -0.00332,0.3631095 q 0,0.1549857 0.014392,0.2291575 0.015499,0.073065 0.056459,0.1571998 H 8.2253275 q -0.012177,-0.030997 -0.02989,-0.091884 -0.00775,-0.027676 -0.01107,-0.036532 -0.079707,0.077493 -0.1704843,0.1162393 -0.090777,0.038746 -0.1937322,0.038746 -0.1815547,0 -0.2867236,-0.098527 Q 7.429365,6.7524092 7.429365,6.6018516 q 0,-0.099634 0.047603,-0.1771265 0.047603,-0.0786 0.1328449,-0.1195605 0.086349,-0.042067 0.2479772,-0.073065 0.2180871,-0.04096 0.3022222,-0.076386 v -0.030997 q 0,-0.08967 -0.044282,-0.1273097 -0.044282,-0.038746 -0.1671632,-0.038746 -0.083028,0 -0.1295238,0.033211 -0.046496,0.032104 -0.075279,0.1140252 z m 0.4162474,0.2524054 q -0.05978,0.019927 -0.189304,0.047603 -0.1295238,0.027676 -0.1693773,0.054245 -0.060887,0.043175 -0.060887,0.109597 0,0.065316 0.04871,0.1129182 0.04871,0.047603 0.1239886,0.047603 0.084135,0 0.1605209,-0.055352 0.056459,-0.042067 0.074172,-0.1029548 0.012177,-0.039853 0.012177,-0.1516646 z M 8.7489578,5.747216 H 9.0356814 V 5.9077369 Q 9.1895601,5.720647 9.402112,5.720647 q 0.1129182,0 0.1959462,0.046496 0.083028,0.046496 0.1361661,0.1405942 0.077493,-0.094098 0.1671632,-0.1405942 0.08967,-0.046496 0.1915185,-0.046496 0.129523,0 0.219194,0.053138 0.08967,0.052031 0.133952,0.1538787 0.0321,0.075279 0.0321,0.2435491 V 6.9228935 H 10.167077 V 6.2509196 q 0,-0.1749125 -0.0321,-0.2258363 -0.04317,-0.066423 -0.132845,-0.066423 -0.065315,0 -0.1228813,0.039854 -0.057566,0.039853 -0.083028,0.1173463 -0.025462,0.076386 -0.025462,0.242442 V 6.9228935 H 9.4596781 V 6.2785956 q 0,-0.1715913 -0.016606,-0.2214082 -0.016606,-0.049817 -0.052031,-0.074172 -0.034318,-0.024355 -0.094098,-0.024355 -0.071958,0 -0.1295238,0.038746 -0.057566,0.038747 -0.083028,0.1118112 -0.024355,0.073065 -0.024355,0.242442 V 6.9228935 H 8.7489578 Z"
       id="text2"
       style="font-weight:bold;font-size:2.26722px;font-family:Arial;-inkscape-font-specification:'Arial, Bold';fill:#282a36;stroke-width:0.188935;fill-opacity:1"
       aria-label="Ungram"
       inkscape:label="ungram" />
  </g>
</svg>
